<mxfile host="app.diagrams.net" modified="2023-04-29T12:37:37.483Z" agent="Mozilla/5.0 (Windows NT 6.1; Win64; x64) AppleWebKit/537.36 (KHTML, like Gecko) Chrome/100.0.4896.127 Safari/537.36" etag="I4Yojy5sAdLy5EN7JZjB" version="21.2.3" type="github">
  <diagram name="第 1 页" id="NtwjsM_fb3mV0uxdRXDD">
    <mxGraphModel dx="3247" dy="2060" grid="1" gridSize="10" guides="1" tooltips="1" connect="1" arrows="1" fold="1" page="1" pageScale="1" pageWidth="827" pageHeight="1169" math="0" shadow="0">
      <root>
        <mxCell id="0" />
        <mxCell id="1" parent="0" />
        <mxCell id="8DVjuy1b9_jXpODUJ3VI-22" value="设计模式" style="rounded=1;whiteSpace=wrap;html=1;" parent="1" vertex="1">
          <mxGeometry x="-185" y="720" width="1060" height="280" as="geometry" />
        </mxCell>
        <mxCell id="8DVjuy1b9_jXpODUJ3VI-24" value="" style="rounded=1;whiteSpace=wrap;html=1;" parent="1" vertex="1">
          <mxGeometry x="-160" y="240" width="890" height="300" as="geometry" />
        </mxCell>
        <mxCell id="8DVjuy1b9_jXpODUJ3VI-13" value="orm" style="rounded=1;whiteSpace=wrap;html=1;" parent="1" vertex="1">
          <mxGeometry x="240" y="590" width="230" height="55" as="geometry" />
        </mxCell>
        <mxCell id="8DVjuy1b9_jXpODUJ3VI-1" value="bean" style="rounded=1;whiteSpace=wrap;html=1;" parent="1" vertex="1">
          <mxGeometry x="20" y="330" width="90" height="40" as="geometry" />
        </mxCell>
        <mxCell id="8DVjuy1b9_jXpODUJ3VI-2" value="beanFactory" style="rounded=1;whiteSpace=wrap;html=1;" parent="1" vertex="1">
          <mxGeometry x="-10" y="300" width="90" height="40" as="geometry" />
        </mxCell>
        <mxCell id="8DVjuy1b9_jXpODUJ3VI-3" value="context" style="rounded=1;whiteSpace=wrap;html=1;" parent="1" vertex="1">
          <mxGeometry x="240" y="280" width="390" height="60" as="geometry" />
        </mxCell>
        <mxCell id="8DVjuy1b9_jXpODUJ3VI-4" value="context-indexer" style="rounded=1;whiteSpace=wrap;html=1;" parent="1" vertex="1">
          <mxGeometry x="270" y="320" width="90" height="40" as="geometry" />
        </mxCell>
        <mxCell id="8DVjuy1b9_jXpODUJ3VI-7" value="context-support" style="rounded=1;whiteSpace=wrap;html=1;" parent="1" vertex="1">
          <mxGeometry x="510" y="320" width="90" height="40" as="geometry" />
        </mxCell>
        <mxCell id="8DVjuy1b9_jXpODUJ3VI-8" value="" style="rounded=1;whiteSpace=wrap;html=1;" parent="1" vertex="1">
          <mxGeometry x="-150" y="470" width="510" height="30" as="geometry" />
        </mxCell>
        <mxCell id="8DVjuy1b9_jXpODUJ3VI-9" value="ExpressionParser" style="rounded=1;whiteSpace=wrap;html=1;" parent="1" vertex="1">
          <mxGeometry x="430" y="460" width="110" height="40" as="geometry" />
        </mxCell>
        <mxCell id="8DVjuy1b9_jXpODUJ3VI-10" value="jdbc" style="rounded=1;whiteSpace=wrap;html=1;" parent="1" vertex="1">
          <mxGeometry x="250" y="597.5" width="90" height="40" as="geometry" />
        </mxCell>
        <mxCell id="8DVjuy1b9_jXpODUJ3VI-11" value="jms" style="rounded=1;whiteSpace=wrap;html=1;" parent="1" vertex="1">
          <mxGeometry x="540" y="220" width="90" height="40" as="geometry" />
        </mxCell>
        <mxCell id="8DVjuy1b9_jXpODUJ3VI-12" value="message" style="rounded=1;whiteSpace=wrap;html=1;" parent="1" vertex="1">
          <mxGeometry x="444" y="220" width="90" height="40" as="geometry" />
        </mxCell>
        <mxCell id="8DVjuy1b9_jXpODUJ3VI-14" value="mvc" style="rounded=1;whiteSpace=wrap;html=1;" parent="1" vertex="1">
          <mxGeometry x="270" y="220" width="90" height="40" as="geometry" />
        </mxCell>
        <mxCell id="8DVjuy1b9_jXpODUJ3VI-16" value="test" style="rounded=1;whiteSpace=wrap;html=1;" parent="1" vertex="1">
          <mxGeometry x="560" y="460" width="110" height="40" as="geometry" />
        </mxCell>
        <mxCell id="8DVjuy1b9_jXpODUJ3VI-17" value="tx" style="rounded=1;whiteSpace=wrap;html=1;" parent="1" vertex="1">
          <mxGeometry x="300" y="544.5" width="90" height="40" as="geometry" />
        </mxCell>
        <mxCell id="8DVjuy1b9_jXpODUJ3VI-18" value="web" style="rounded=1;whiteSpace=wrap;html=1;" parent="1" vertex="1">
          <mxGeometry x="270" y="170" width="90" height="40" as="geometry" />
        </mxCell>
        <mxCell id="8DVjuy1b9_jXpODUJ3VI-19" value="aop" style="rounded=1;whiteSpace=wrap;html=1;" parent="1" vertex="1">
          <mxGeometry x="120" y="240" width="90" height="40" as="geometry" />
        </mxCell>
        <mxCell id="8DVjuy1b9_jXpODUJ3VI-20" value="aop" style="rounded=1;whiteSpace=wrap;html=1;" parent="1" vertex="1">
          <mxGeometry x="120" y="530" width="90" height="40" as="geometry" />
        </mxCell>
        <mxCell id="8DVjuy1b9_jXpODUJ3VI-21" value="代理：a = b&amp;nbsp;&lt;br&gt;包装：a &amp;gt; b&amp;nbsp; 比装饰(选择包的更紧)&amp;nbsp;&lt;br&gt;委派&amp;nbsp; b &amp;gt; a&amp;nbsp;" style="rounded=1;whiteSpace=wrap;html=1;" parent="1" vertex="1">
          <mxGeometry x="-75" y="730" width="120" height="60" as="geometry" />
        </mxCell>
        <mxCell id="8DVjuy1b9_jXpODUJ3VI-23" value="监听器：主宾不管" style="rounded=1;whiteSpace=wrap;html=1;" parent="1" vertex="1">
          <mxGeometry x="109" y="730" width="120" height="60" as="geometry" />
        </mxCell>
        <mxCell id="8DVjuy1b9_jXpODUJ3VI-25" value="visitor" style="rounded=1;whiteSpace=wrap;html=1;" parent="1" vertex="1">
          <mxGeometry x="325" y="730" width="120" height="60" as="geometry" />
        </mxCell>
        <mxCell id="8DVjuy1b9_jXpODUJ3VI-26" value="wrapper - decorator" style="rounded=1;whiteSpace=wrap;html=1;" parent="1" vertex="1">
          <mxGeometry x="-75" y="820" width="120" height="60" as="geometry" />
        </mxCell>
        <mxCell id="8DVjuy1b9_jXpODUJ3VI-27" value="observe" style="rounded=1;whiteSpace=wrap;html=1;" parent="1" vertex="1">
          <mxGeometry x="109" y="810" width="120" height="60" as="geometry" />
        </mxCell>
        <mxCell id="8DVjuy1b9_jXpODUJ3VI-28" value="convert" style="rounded=1;whiteSpace=wrap;html=1;" parent="1" vertex="1">
          <mxGeometry x="90" y="890" width="120" height="60" as="geometry" />
        </mxCell>
        <mxCell id="8DVjuy1b9_jXpODUJ3VI-29" value="supporter" style="rounded=1;whiteSpace=wrap;html=1;" parent="1" vertex="1">
          <mxGeometry x="475" y="930" width="120" height="60" as="geometry" />
        </mxCell>
        <mxCell id="8DVjuy1b9_jXpODUJ3VI-30" value="provider" style="rounded=1;whiteSpace=wrap;html=1;" parent="1" vertex="1">
          <mxGeometry x="475" y="870" width="120" height="60" as="geometry" />
        </mxCell>
        <mxCell id="IgkVl0Ok6L5CEyOmN0SB-1" value="string -&amp;gt; java对象" style="ellipse;whiteSpace=wrap;html=1;" parent="1" vertex="1">
          <mxGeometry x="444" y="490" width="110" height="40" as="geometry" />
        </mxCell>
        <mxCell id="IgkVl0Ok6L5CEyOmN0SB-2" value="aware" style="ellipse;whiteSpace=wrap;html=1;" parent="1" vertex="1">
          <mxGeometry x="260" y="280" width="94" height="30" as="geometry" />
        </mxCell>
        <mxCell id="IgkVl0Ok6L5CEyOmN0SB-3" value="holder" style="ellipse;whiteSpace=wrap;html=1;" parent="1" vertex="1">
          <mxGeometry x="324" y="280" width="94" height="30" as="geometry" />
        </mxCell>
        <mxCell id="IgkVl0Ok6L5CEyOmN0SB-4" value="xxContext" style="ellipse;whiteSpace=wrap;html=1;" parent="1" vertex="1">
          <mxGeometry x="460" y="280" width="94" height="30" as="geometry" />
        </mxCell>
        <mxCell id="IgkVl0Ok6L5CEyOmN0SB-5" value="事件、回调" style="ellipse;whiteSpace=wrap;html=1;" parent="1" vertex="1">
          <mxGeometry x="538" y="280" width="94" height="30" as="geometry" />
        </mxCell>
        <mxCell id="IgkVl0Ok6L5CEyOmN0SB-6" value="Class、反射、definition、loader、parser、lifeCycle一层套一层各种前置后置包装了原始的new x()" style="ellipse;whiteSpace=wrap;html=1;" parent="1" vertex="1">
          <mxGeometry x="-160" y="300" width="150" height="80" as="geometry" />
        </mxCell>
        <mxCell id="6bYrUJhqg-hXXueT0Fsd-1" value="asm" style="ellipse;whiteSpace=wrap;html=1;" parent="1" vertex="1">
          <mxGeometry x="-150" y="460" width="60" height="30" as="geometry" />
        </mxCell>
        <mxCell id="6bYrUJhqg-hXXueT0Fsd-2" value="cglib" style="ellipse;whiteSpace=wrap;html=1;" parent="1" vertex="1">
          <mxGeometry x="-40" y="460" width="60" height="30" as="geometry" />
        </mxCell>
        <mxCell id="6bYrUJhqg-hXXueT0Fsd-3" value="starter" style="ellipse;whiteSpace=wrap;html=1;" parent="1" vertex="1">
          <mxGeometry x="-10" y="80" width="60" height="30" as="geometry" />
        </mxCell>
        <mxCell id="6bYrUJhqg-hXXueT0Fsd-4" value="lang" style="ellipse;whiteSpace=wrap;html=1;" parent="1" vertex="1">
          <mxGeometry x="230" y="460" width="60" height="30" as="geometry" />
        </mxCell>
        <mxCell id="6bYrUJhqg-hXXueT0Fsd-5" value="utils" style="ellipse;whiteSpace=wrap;html=1;" parent="1" vertex="1">
          <mxGeometry x="294" y="460" width="60" height="30" as="geometry" />
        </mxCell>
        <mxCell id="6bYrUJhqg-hXXueT0Fsd-7" value="core" style="text;html=1;strokeColor=none;fillColor=none;align=center;verticalAlign=middle;whiteSpace=wrap;rounded=0;" parent="1" vertex="1">
          <mxGeometry x="170" y="490" width="60" height="30" as="geometry" />
        </mxCell>
        <mxCell id="C8vnqu5Hma9AOiLz9f1y-1" value="visitor" style="rounded=0;whiteSpace=wrap;html=1;" parent="1" vertex="1">
          <mxGeometry x="-160" y="450" width="40" height="10" as="geometry" />
        </mxCell>
        <mxCell id="C8vnqu5Hma9AOiLz9f1y-2" value="writer" style="rounded=0;whiteSpace=wrap;html=1;" parent="1" vertex="1">
          <mxGeometry x="-120" y="450" width="40" height="10" as="geometry" />
        </mxCell>
        <mxCell id="C8vnqu5Hma9AOiLz9f1y-3" value="beans" style="rounded=0;whiteSpace=wrap;html=1;" parent="1" vertex="1">
          <mxGeometry x="-60" y="450" width="40" height="10" as="geometry" />
        </mxCell>
        <mxCell id="C8vnqu5Hma9AOiLz9f1y-4" value="core" style="rounded=0;whiteSpace=wrap;html=1;" parent="1" vertex="1">
          <mxGeometry x="-20" y="450" width="40" height="10" as="geometry" />
        </mxCell>
        <mxCell id="C8vnqu5Hma9AOiLz9f1y-5" value="proxy" style="rounded=0;whiteSpace=wrap;html=1;" parent="1" vertex="1">
          <mxGeometry x="20" y="450" width="40" height="10" as="geometry" />
        </mxCell>
        <mxCell id="C8vnqu5Hma9AOiLz9f1y-6" value="reflect" style="rounded=0;whiteSpace=wrap;html=1;" parent="1" vertex="1">
          <mxGeometry x="60" y="450" width="40" height="10" as="geometry" />
        </mxCell>
        <mxCell id="C8vnqu5Hma9AOiLz9f1y-7" value="transformer" style="rounded=0;whiteSpace=wrap;html=1;" parent="1" vertex="1">
          <mxGeometry x="100" y="450" width="70" height="10" as="geometry" />
        </mxCell>
        <mxCell id="C8vnqu5Hma9AOiLz9f1y-8" value="utils" style="rounded=0;whiteSpace=wrap;html=1;" parent="1" vertex="1">
          <mxGeometry x="170" y="450" width="30" height="10" as="geometry" />
        </mxCell>
        <mxCell id="C8vnqu5Hma9AOiLz9f1y-9" value="" style="rounded=1;whiteSpace=wrap;html=1;" parent="1" vertex="1">
          <mxGeometry x="-1630" y="445" width="1020" height="35" as="geometry" />
        </mxCell>
        <mxCell id="C8vnqu5Hma9AOiLz9f1y-10" value="asm" style="ellipse;whiteSpace=wrap;html=1;" parent="1" vertex="1">
          <mxGeometry x="-1630" y="440" width="60" height="30" as="geometry" />
        </mxCell>
        <mxCell id="C8vnqu5Hma9AOiLz9f1y-11" value="cglib" style="ellipse;whiteSpace=wrap;html=1;" parent="1" vertex="1">
          <mxGeometry x="-1520" y="440" width="60" height="30" as="geometry" />
        </mxCell>
        <mxCell id="C8vnqu5Hma9AOiLz9f1y-12" value="core" style="ellipse;whiteSpace=wrap;html=1;" parent="1" vertex="1">
          <mxGeometry x="-1170" y="440" width="60" height="30" as="geometry" />
        </mxCell>
        <mxCell id="C8vnqu5Hma9AOiLz9f1y-13" value="lang" style="ellipse;whiteSpace=wrap;html=1;" parent="1" vertex="1">
          <mxGeometry x="-780" y="435" width="60" height="30" as="geometry" />
        </mxCell>
        <mxCell id="C8vnqu5Hma9AOiLz9f1y-14" value="utils" style="ellipse;whiteSpace=wrap;html=1;" parent="1" vertex="1">
          <mxGeometry x="-680" y="435" width="60" height="30" as="geometry" />
        </mxCell>
        <mxCell id="C8vnqu5Hma9AOiLz9f1y-15" value="core" style="text;html=1;strokeColor=none;fillColor=none;align=center;verticalAlign=middle;whiteSpace=wrap;rounded=0;" parent="1" vertex="1">
          <mxGeometry x="-1310" y="470" width="60" height="30" as="geometry" />
        </mxCell>
        <mxCell id="C8vnqu5Hma9AOiLz9f1y-16" value="visitor" style="rounded=0;whiteSpace=wrap;html=1;" parent="1" vertex="1">
          <mxGeometry x="-1640" y="430" width="40" height="10" as="geometry" />
        </mxCell>
        <mxCell id="C8vnqu5Hma9AOiLz9f1y-17" value="writer" style="rounded=0;whiteSpace=wrap;html=1;" parent="1" vertex="1">
          <mxGeometry x="-1600" y="430" width="40" height="10" as="geometry" />
        </mxCell>
        <mxCell id="C8vnqu5Hma9AOiLz9f1y-18" value="beans" style="rounded=0;whiteSpace=wrap;html=1;" parent="1" vertex="1">
          <mxGeometry x="-1540" y="430" width="40" height="10" as="geometry" />
        </mxCell>
        <mxCell id="C8vnqu5Hma9AOiLz9f1y-19" value="core" style="rounded=0;whiteSpace=wrap;html=1;" parent="1" vertex="1">
          <mxGeometry x="-1500" y="430" width="40" height="10" as="geometry" />
        </mxCell>
        <mxCell id="C8vnqu5Hma9AOiLz9f1y-20" value="proxy" style="rounded=0;whiteSpace=wrap;html=1;" parent="1" vertex="1">
          <mxGeometry x="-1460" y="430" width="40" height="10" as="geometry" />
        </mxCell>
        <mxCell id="C8vnqu5Hma9AOiLz9f1y-21" value="reflect" style="rounded=0;whiteSpace=wrap;html=1;" parent="1" vertex="1">
          <mxGeometry x="-1420" y="430" width="40" height="10" as="geometry" />
        </mxCell>
        <mxCell id="C8vnqu5Hma9AOiLz9f1y-22" value="transformer" style="rounded=0;whiteSpace=wrap;html=1;" parent="1" vertex="1">
          <mxGeometry x="-1380" y="430" width="70" height="10" as="geometry" />
        </mxCell>
        <mxCell id="C8vnqu5Hma9AOiLz9f1y-23" value="utils" style="rounded=0;whiteSpace=wrap;html=1;" parent="1" vertex="1">
          <mxGeometry x="-1310" y="430" width="30" height="10" as="geometry" />
        </mxCell>
        <mxCell id="lfe7L7_-W3CcYf6JYdEf-1" value="&lt;div class=&quot;lake-content&quot;&gt;AliasRegistry&lt;/div&gt;" style="rounded=0;whiteSpace=wrap;html=1;" vertex="1" parent="1">
          <mxGeometry x="-1240" y="430" width="70" height="10" as="geometry" />
        </mxCell>
        <mxCell id="lfe7L7_-W3CcYf6JYdEf-2" value="&lt;div class=&quot;lake-content&quot;&gt;annotation&lt;/div&gt;" style="rounded=0;whiteSpace=wrap;html=1;" vertex="1" parent="1">
          <mxGeometry x="-1170" y="430" width="60" height="10" as="geometry" />
        </mxCell>
        <mxCell id="lfe7L7_-W3CcYf6JYdEf-4" value="&lt;div class=&quot;lake-content&quot;&gt;codec&lt;/div&gt;" style="rounded=0;whiteSpace=wrap;html=1;" vertex="1" parent="1">
          <mxGeometry x="-1110" y="430" width="40" height="10" as="geometry" />
        </mxCell>
        <mxCell id="lfe7L7_-W3CcYf6JYdEf-5" value="&lt;div class=&quot;lake-content&quot;&gt;convert&lt;/div&gt;" style="rounded=0;whiteSpace=wrap;html=1;" vertex="1" parent="1">
          <mxGeometry x="-1070" y="430" width="40" height="10" as="geometry" />
        </mxCell>
        <mxCell id="lfe7L7_-W3CcYf6JYdEf-6" value="&lt;div class=&quot;lake-content&quot;&gt;env&lt;/div&gt;" style="rounded=0;whiteSpace=wrap;html=1;" vertex="1" parent="1">
          <mxGeometry x="-1030" y="430" width="30" height="10" as="geometry" />
        </mxCell>
        <mxCell id="lfe7L7_-W3CcYf6JYdEf-7" value="&lt;div class=&quot;lake-content&quot;&gt;io&lt;/div&gt;" style="rounded=0;whiteSpace=wrap;html=1;" vertex="1" parent="1">
          <mxGeometry x="-1004" y="430" width="20" height="10" as="geometry" />
        </mxCell>
        <mxCell id="lfe7L7_-W3CcYf6JYdEf-8" value="&lt;div class=&quot;lake-content&quot;&gt;log&lt;/div&gt;" style="rounded=0;whiteSpace=wrap;html=1;" vertex="1" parent="1">
          <mxGeometry x="-984" y="430" width="20" height="10" as="geometry" />
        </mxCell>
        <mxCell id="lfe7L7_-W3CcYf6JYdEf-9" value="&lt;div class=&quot;lake-content&quot;&gt;serializer&lt;/div&gt;" style="rounded=0;whiteSpace=wrap;html=1;" vertex="1" parent="1">
          <mxGeometry x="-964" y="430" width="54" height="10" as="geometry" />
        </mxCell>
        <mxCell id="lfe7L7_-W3CcYf6JYdEf-10" value="&lt;div class=&quot;lake-content&quot;&gt;style&lt;/div&gt;" style="rounded=0;whiteSpace=wrap;html=1;" vertex="1" parent="1">
          <mxGeometry x="-910" y="430" width="30" height="10" as="geometry" />
        </mxCell>
        <mxCell id="lfe7L7_-W3CcYf6JYdEf-11" value="&lt;div class=&quot;lake-content&quot;&gt;task&lt;/div&gt;" style="rounded=0;whiteSpace=wrap;html=1;" vertex="1" parent="1">
          <mxGeometry x="-880" y="430" width="30" height="10" as="geometry" />
        </mxCell>
        <mxCell id="lfe7L7_-W3CcYf6JYdEf-12" value="&lt;div class=&quot;lake-content&quot;&gt;type&lt;/div&gt;" style="rounded=0;whiteSpace=wrap;html=1;" vertex="1" parent="1">
          <mxGeometry x="-850" y="430" width="30" height="10" as="geometry" />
        </mxCell>
        <mxCell id="lfe7L7_-W3CcYf6JYdEf-14" value="ExpressionParser" style="rounded=1;whiteSpace=wrap;html=1;" vertex="1" parent="1">
          <mxGeometry x="1010" y="480" width="690" height="40" as="geometry" />
        </mxCell>
        <mxCell id="lfe7L7_-W3CcYf6JYdEf-15" value="string -&amp;gt; java对象" style="ellipse;whiteSpace=wrap;html=1;" vertex="1" parent="1">
          <mxGeometry x="1250" y="510" width="110" height="34.5" as="geometry" />
        </mxCell>
        <mxCell id="lfe7L7_-W3CcYf6JYdEf-16" value="BeanResolver" style="rounded=1;whiteSpace=wrap;html=1;" vertex="1" parent="1">
          <mxGeometry x="1020" y="470" width="80" height="25" as="geometry" />
        </mxCell>
        <mxCell id="lfe7L7_-W3CcYf6JYdEf-17" value="EvaluationContext" style="rounded=1;whiteSpace=wrap;html=1;" vertex="1" parent="1">
          <mxGeometry x="1110" y="470" width="100" height="25" as="geometry" />
        </mxCell>
        <mxCell id="lfe7L7_-W3CcYf6JYdEf-18" value="Expression" style="rounded=1;whiteSpace=wrap;html=1;" vertex="1" parent="1">
          <mxGeometry x="1220" y="470" width="100" height="25" as="geometry" />
        </mxCell>
        <mxCell id="lfe7L7_-W3CcYf6JYdEf-19" value="ExpressionParser" style="rounded=1;whiteSpace=wrap;html=1;" vertex="1" parent="1">
          <mxGeometry x="1330" y="470" width="100" height="25" as="geometry" />
        </mxCell>
        <mxCell id="lfe7L7_-W3CcYf6JYdEf-20" value="MethodResolver" style="rounded=1;whiteSpace=wrap;html=1;" vertex="1" parent="1">
          <mxGeometry x="1010" y="440" width="100" height="27.5" as="geometry" />
        </mxCell>
        <mxCell id="lfe7L7_-W3CcYf6JYdEf-21" value="common" style="rounded=1;whiteSpace=wrap;html=1;" vertex="1" parent="1">
          <mxGeometry x="1450" y="470" width="100" height="25" as="geometry" />
        </mxCell>
        <mxCell id="lfe7L7_-W3CcYf6JYdEf-22" value="TemplateAwareExpressionParser" style="rounded=1;whiteSpace=wrap;html=1;" vertex="1" parent="1">
          <mxGeometry x="1320" y="441.25" width="130" height="27.5" as="geometry" />
        </mxCell>
        <mxCell id="lfe7L7_-W3CcYf6JYdEf-23" value="spel" style="rounded=1;whiteSpace=wrap;html=1;" vertex="1" parent="1">
          <mxGeometry x="1580" y="470" width="100" height="25" as="geometry" />
        </mxCell>
        <mxCell id="lfe7L7_-W3CcYf6JYdEf-24" value="Tokenizer" style="rounded=1;whiteSpace=wrap;html=1;" vertex="1" parent="1">
          <mxGeometry x="1560" y="440" width="60" height="26.25" as="geometry" />
        </mxCell>
        <mxCell id="lfe7L7_-W3CcYf6JYdEf-25" value="TokenKind" style="rounded=1;whiteSpace=wrap;html=1;" vertex="1" parent="1">
          <mxGeometry x="1560" y="413.75" width="60" height="26.25" as="geometry" />
        </mxCell>
        <mxCell id="lfe7L7_-W3CcYf6JYdEf-26" value="SpelNode" style="rounded=1;whiteSpace=wrap;html=1;" vertex="1" parent="1">
          <mxGeometry x="1620" y="440.63" width="60" height="26.25" as="geometry" />
        </mxCell>
        <mxCell id="lfe7L7_-W3CcYf6JYdEf-27" value="ast" style="rounded=1;whiteSpace=wrap;html=1;" vertex="1" parent="1">
          <mxGeometry x="1620" y="413.75" width="60" height="26.25" as="geometry" />
        </mxCell>
        <mxCell id="lfe7L7_-W3CcYf6JYdEf-28" value="codeflow" style="rounded=1;whiteSpace=wrap;html=1;" vertex="1" parent="1">
          <mxGeometry x="1680" y="440" width="60" height="26.25" as="geometry" />
        </mxCell>
        <mxCell id="lfe7L7_-W3CcYf6JYdEf-31" value="helper" style="rounded=1;whiteSpace=wrap;html=1;" vertex="1" parent="1">
          <mxGeometry x="605" y="890" width="120" height="60" as="geometry" />
        </mxCell>
        <mxCell id="lfe7L7_-W3CcYf6JYdEf-32" value="resolver代替handler" style="rounded=1;whiteSpace=wrap;html=1;" vertex="1" parent="1">
          <mxGeometry x="475" y="810" width="120" height="60" as="geometry" />
        </mxCell>
        <mxCell id="lfe7L7_-W3CcYf6JYdEf-33" value="bean" style="rounded=1;whiteSpace=wrap;html=1;" vertex="1" parent="1">
          <mxGeometry x="-1280" y="-90" width="1290" height="40" as="geometry" />
        </mxCell>
        <mxCell id="lfe7L7_-W3CcYf6JYdEf-34" value="accessor" style="rounded=1;whiteSpace=wrap;html=1;" vertex="1" parent="1">
          <mxGeometry x="-1290" y="-100" width="70" height="20" as="geometry" />
        </mxCell>
        <mxCell id="lfe7L7_-W3CcYf6JYdEf-35" value="Class、反射、definition、loader、parser、lifeCycle一层套一层各种前置后置包装了原始的new x()" style="ellipse;whiteSpace=wrap;html=1;" vertex="1" parent="1">
          <mxGeometry x="-100" y="-250" width="150" height="80" as="geometry" />
        </mxCell>
        <mxCell id="lfe7L7_-W3CcYf6JYdEf-36" value="beanFactory" style="rounded=1;whiteSpace=wrap;html=1;" vertex="1" parent="1">
          <mxGeometry x="-1199" y="-270" width="90" height="40" as="geometry" />
        </mxCell>
        <mxCell id="lfe7L7_-W3CcYf6JYdEf-37" value="BeanInfoFactory" style="rounded=1;whiteSpace=wrap;html=1;" vertex="1" parent="1">
          <mxGeometry x="-1210" y="-100" width="90" height="20" as="geometry" />
        </mxCell>
        <mxCell id="lfe7L7_-W3CcYf6JYdEf-38" value="如何和其他框架结合" style="rounded=1;whiteSpace=wrap;html=1;" vertex="1" parent="1">
          <mxGeometry x="10" y="120" width="130" height="30" as="geometry" />
        </mxCell>
        <mxCell id="lfe7L7_-W3CcYf6JYdEf-39" value="import" style="ellipse;whiteSpace=wrap;html=1;" vertex="1" parent="1">
          <mxGeometry x="60" y="80" width="60" height="30" as="geometry" />
        </mxCell>
        <mxCell id="lfe7L7_-W3CcYf6JYdEf-40" value="BeanMetadataElement" style="rounded=1;whiteSpace=wrap;html=1;" vertex="1" parent="1">
          <mxGeometry x="-1230" y="-140" width="160" height="30" as="geometry" />
        </mxCell>
        <mxCell id="lfe7L7_-W3CcYf6JYdEf-41" value="utils" style="rounded=1;whiteSpace=wrap;html=1;" vertex="1" parent="1">
          <mxGeometry x="-90" y="-110" width="90" height="20" as="geometry" />
        </mxCell>
        <mxCell id="lfe7L7_-W3CcYf6JYdEf-42" value="beanutls" style="rounded=1;whiteSpace=wrap;html=1;" vertex="1" parent="1">
          <mxGeometry x="-90" y="-135" width="90" height="20" as="geometry" />
        </mxCell>
        <mxCell id="lfe7L7_-W3CcYf6JYdEf-43" value="beanWrapper" style="rounded=1;whiteSpace=wrap;html=1;" vertex="1" parent="1">
          <mxGeometry x="-1040" y="-100" width="90" height="20" as="geometry" />
        </mxCell>
        <mxCell id="lfe7L7_-W3CcYf6JYdEf-44" value="CachedIntrospectionResults" style="rounded=1;whiteSpace=wrap;html=1;" vertex="1" parent="1">
          <mxGeometry x="-1230" y="-180" width="160" height="30" as="geometry" />
        </mxCell>
        <mxCell id="lfe7L7_-W3CcYf6JYdEf-45" value="PropertyDescriptorUtils" style="rounded=1;whiteSpace=wrap;html=1;" vertex="1" parent="1">
          <mxGeometry x="-90" y="-160" width="90" height="20" as="geometry" />
        </mxCell>
        <mxCell id="lfe7L7_-W3CcYf6JYdEf-46" value="PropertyMatches" style="rounded=1;whiteSpace=wrap;html=1;" vertex="1" parent="1">
          <mxGeometry x="-1040" y="-130" width="90" height="20" as="geometry" />
        </mxCell>
        <mxCell id="lfe7L7_-W3CcYf6JYdEf-47" value="PropertyValue" style="rounded=1;whiteSpace=wrap;html=1;" vertex="1" parent="1">
          <mxGeometry x="-1040" y="-155" width="90" height="20" as="geometry" />
        </mxCell>
        <mxCell id="lfe7L7_-W3CcYf6JYdEf-48" value="PropertyValuesEditor" style="rounded=1;whiteSpace=wrap;html=1;" vertex="1" parent="1">
          <mxGeometry x="-1040" y="-180" width="90" height="20" as="geometry" />
        </mxCell>
        <mxCell id="lfe7L7_-W3CcYf6JYdEf-49" value="factory" style="rounded=1;whiteSpace=wrap;html=1;" vertex="1" parent="1">
          <mxGeometry x="-840" y="-100" width="90" height="20" as="geometry" />
        </mxCell>
        <mxCell id="lfe7L7_-W3CcYf6JYdEf-50" value="annotaiton" style="rounded=1;whiteSpace=wrap;html=1;" vertex="1" parent="1">
          <mxGeometry x="-890" y="-120" width="90" height="20" as="geometry" />
        </mxCell>
        <mxCell id="lfe7L7_-W3CcYf6JYdEf-51" value="l流程中：processor" style="rounded=1;whiteSpace=wrap;html=1;" vertex="1" parent="1">
          <mxGeometry x="630" y="760" width="120" height="60" as="geometry" />
        </mxCell>
        <mxCell id="lfe7L7_-W3CcYf6JYdEf-52" value="aot" style="rounded=1;whiteSpace=wrap;html=1;" vertex="1" parent="1">
          <mxGeometry x="-800" y="-120" width="30" height="20" as="geometry" />
        </mxCell>
        <mxCell id="lfe7L7_-W3CcYf6JYdEf-53" value="config" style="rounded=1;whiteSpace=wrap;html=1;" vertex="1" parent="1">
          <mxGeometry x="-593" y="-115" width="40" height="20" as="geometry" />
        </mxCell>
        <mxCell id="lfe7L7_-W3CcYf6JYdEf-55" value="AbstractFactoryBean" style="rounded=1;whiteSpace=wrap;html=1;" vertex="1" parent="1">
          <mxGeometry x="-740" y="-140" width="110" height="20" as="geometry" />
        </mxCell>
        <mxCell id="lfe7L7_-W3CcYf6JYdEf-56" value="自动加载" style="rounded=1;whiteSpace=wrap;html=1;" vertex="1" parent="1">
          <mxGeometry x="-820" y="-140" width="50" height="20" as="geometry" />
        </mxCell>
        <mxCell id="lfe7L7_-W3CcYf6JYdEf-57" value="BeanDefinition" style="rounded=1;whiteSpace=wrap;html=1;" vertex="1" parent="1">
          <mxGeometry x="-620" y="-140" width="80" height="20" as="geometry" />
        </mxCell>
        <mxCell id="lfe7L7_-W3CcYf6JYdEf-59" value="BeanDefinitionCustomizer" style="rounded=1;whiteSpace=wrap;html=1;" vertex="1" parent="1">
          <mxGeometry x="-640" y="-175" width="140" height="20" as="geometry" />
        </mxCell>
        <mxCell id="lfe7L7_-W3CcYf6JYdEf-60" value="BeanDefinitionVisitor" style="rounded=1;whiteSpace=wrap;html=1;" vertex="1" parent="1">
          <mxGeometry x="-643" y="-200" width="140" height="20" as="geometry" />
        </mxCell>
        <mxCell id="lfe7L7_-W3CcYf6JYdEf-61" value="BeanExpressionResolver" style="rounded=1;whiteSpace=wrap;html=1;" vertex="1" parent="1">
          <mxGeometry x="-643" y="-230" width="140" height="20" as="geometry" />
        </mxCell>
        <mxCell id="lfe7L7_-W3CcYf6JYdEf-62" value="BeanPostProcessor" style="rounded=1;whiteSpace=wrap;html=1;" vertex="1" parent="1">
          <mxGeometry x="-640" y="-260" width="140" height="20" as="geometry" />
        </mxCell>
        <mxCell id="lfe7L7_-W3CcYf6JYdEf-63" value="&lt;div class=&quot;lake-content&quot;&gt;TypeConverterDelegate&lt;/div&gt;" style="rounded=1;whiteSpace=wrap;html=1;" vertex="1" parent="1">
          <mxGeometry x="270" y="920" width="120" height="60" as="geometry" />
        </mxCell>
        <mxCell id="lfe7L7_-W3CcYf6JYdEf-64" value="BeanDefinitionVisitor" style="rounded=1;whiteSpace=wrap;html=1;" vertex="1" parent="1">
          <mxGeometry x="439" y="720" width="120" height="60" as="geometry" />
        </mxCell>
        <mxCell id="lfe7L7_-W3CcYf6JYdEf-65" value="PropertyValues" style="rounded=1;whiteSpace=wrap;html=1;" vertex="1" parent="1">
          <mxGeometry x="-530" y="-140" width="80" height="20" as="geometry" />
        </mxCell>
        <mxCell id="lfe7L7_-W3CcYf6JYdEf-67" value="parse" style="rounded=1;whiteSpace=wrap;html=1;" vertex="1" parent="1">
          <mxGeometry x="-390" y="-115" width="40" height="20" as="geometry" />
        </mxCell>
        <mxCell id="lfe7L7_-W3CcYf6JYdEf-68" value="ParseState 状态模式" style="rounded=1;whiteSpace=wrap;html=1;" vertex="1" parent="1">
          <mxGeometry x="-110" y="910" width="120" height="60" as="geometry" />
        </mxCell>
        <mxCell id="lfe7L7_-W3CcYf6JYdEf-69" value="serviceLoader" style="rounded=1;whiteSpace=wrap;html=1;" vertex="1" parent="1">
          <mxGeometry x="-300" y="-120" width="80" height="25" as="geometry" />
        </mxCell>
        <mxCell id="lfe7L7_-W3CcYf6JYdEf-70" value="ServiceLoaderFactoryBean" style="rounded=1;whiteSpace=wrap;html=1;" vertex="1" parent="1">
          <mxGeometry x="-300" y="-150" width="80" height="25" as="geometry" />
        </mxCell>
      </root>
    </mxGraphModel>
  </diagram>
</mxfile>
